<svg xmlns="http://www.w3.org/2000/svg" viewBox="0 0 1920 1080"><defs><style>.cls-1,.cls-8{opacity:0.4;}.cls-2,.cls-8{fill:#a3a3a6;}.cls-3{fill:#b65732;}.cls-4{fill:#7590ad;}.cls-5{fill:#59595b;}.cls-6{fill:#d9d9d9;}.cls-7{fill:#263238;}.cls-8{font-size:121.28px;font-family:Poppins-SemiBold, Poppins;font-weight:600;}</style></defs><g id="Floor"><g class="cls-1"><rect class="cls-2" x="251.72" y="639.04" width="30.56" height="186.37"/><rect class="cls-2" x="420.1" y="619.58" width="30.56" height="205.84"/><rect class="cls-2" x="379.77" y="669.24" width="30.56" height="156.18"/><rect class="cls-3" x="337.83" y="697.21" width="30.56" height="128.2"/><rect class="cls-4" x="294.09" y="569.01" width="30.56" height="256.41"/><polygon class="cls-5" points="453.06 849.33 224.02 849.33 224.02 547.76 228.86 547.76 228.86 844.49 453.06 844.49 453.06 849.33"/><rect class="cls-5" x="459.24" y="844.49" width="13.23" height="4.84"/><rect class="cls-5" x="477.03" y="844.49" width="13.23" height="4.84"/><polygon class="cls-5" points="495.55 832.67 516.25 846.91 495.55 861.15 495.55 832.67"/></g><g class="cls-1"><path class="cls-3" d="M1546.5,540a137.32,137.32,0,0,0-95.87,38.86l95.87,99Z"/><path class="cls-2" d="M1428,794.92l112.43-79.68-95.87-99A137.69,137.69,0,0,0,1428,794.92Z"/><path class="cls-6" d="M1709.16,696.35a139.5,139.5,0,0,0-3.32-14.09q-.87-3-1.86-5.89-2.18-6.39-4.94-12.49c-.8-1.78-1.63-3.52-2.5-5.25q-2.88-5.73-6.25-11.17c-1-1.59-2-3.16-3-4.71-2.6-3.81-5.38-7.5-8.33-11q-1.76-2.12-3.59-4.15-4.14-4.58-8.66-8.78c-1.33-1.24-2.7-2.46-4.08-3.65-3.14-2.71-6.38-5.27-9.75-7.69q-2.25-1.63-4.57-3.17c-3.52-2.34-7.15-4.53-10.89-6.54-1.68-.91-3.39-1.78-5.11-2.63a139.82,139.82,0,0,0-13.61-5.76c-1.91-.69-3.83-1.35-5.78-2a142.18,142.18,0,0,0-13.86-3.58q-3.26-.66-6.56-1.17a139.08,139.08,0,0,0-15.92-1.51c-1.87-.07-3.75-.14-5.64-.14a2.74,2.74,0,0,0-2.74,2.73V720.15l-9.74,6.89-26.59,18.85L1472,788.3,1456.89,799a2.74,2.74,0,0,0-.65,3.81c.17.24.36.46.53.7,2.43,3.38,5,6.6,7.72,9.72,1.19,1.38,2.4,2.76,3.65,4.09,2.81,3,5.75,5.88,8.8,8.62,1.36,1.23,2.75,2.42,4.15,3.59,3.56,3,7.21,5.77,11,8.35,1.55,1.05,3.15,2,4.74,3q5.45,3.38,11.16,6.26c1.73.87,3.47,1.72,5.23,2.51,4.09,1.85,8.28,3.46,12.53,4.91,2,.66,3.9,1.29,5.87,1.86a140.17,140.17,0,0,0,14,3.39c2.23.4,4.47.72,6.72,1a139.71,139.71,0,0,0,18.11,1.26h.38c2.54,0,5-.08,7.56-.21a139.18,139.18,0,0,0,19.93-2.51c3.45-.69,6.85-1.52,10.2-2.45a139,139,0,0,0,55.15-30,143.38,143.38,0,0,0,12.57-12.57,139.24,139.24,0,0,0,30-55.15c.93-3.36,1.77-6.76,2.45-10.21a139,139,0,0,0,2.51-19.93q.21-3.76.21-7.56c0-.13,0-.26,0-.38a142.34,142.34,0,0,0-1.24-18.12Q1709.77,699.68,1709.16,696.35Z"/></g><g class="cls-1"><path class="cls-7" d="M872.57,861.86c0,.14-148.67.26-332,.26s-332-.12-332-.26,148.63-.26,332-.26S872.57,861.72,872.57,861.86Z"/></g><text class="cls-8" transform="translate(798.87 140.14)">CERA</text></g></svg>