<svg xmlns="http://www.w3.org/2000/svg" viewBox="0 0 302.99 308.08"><defs><style>.cls-1{fill:#e5e7eb;}.cls-2{fill:#0369a1;}.cls-3{fill:#b91c1c;}.cls-4{fill:#15803d;}.cls-5{fill:#4338ca;}</style></defs><g id="Layer_2" data-name="Layer 2"><g id="Floor"><circle class="cls-1" cx="151.5" cy="105.82" r="105.82"/><path class="cls-2" d="M72.4,247.79l-12.77,2.75Q58.37,240.36,53,234.93a17.25,17.25,0,0,0-12.65-5.43q-13.29,0-19.84,13.43A65.43,65.43,0,0,0,14,272q0,12.11,5.47,18.31a17.59,17.59,0,0,0,13.82,6.22q15.1,0,23.38-20.38l10.69,4q-4.17,12.94-13.7,20.42a34.2,34.2,0,0,1-21.71,7.47q-15.62,0-23.76-12.32A48.37,48.37,0,0,1,0,268.5a58.58,58.58,0,0,1,11.23-34.74Q22.46,218,40.67,218a30.57,30.57,0,0,1,21.63,8.34Q71.24,234.64,72.4,247.79Z"/><path class="cls-2" d="M153.33,285.45q-13,22.21-36.58,22.21-16,0-26-10.42T80.67,269q0-21.85,12.53-36.46T124.27,218a37.72,37.72,0,0,1,17,3.92,27.57,27.57,0,0,1,12.28,12.26q4.38,8.32,4.38,20.25a71.24,71.24,0,0,1-.75,9.67H94.79a54.19,54.19,0,0,0-.51,6.6q0,11.61,6.1,18.83t16.54,7.22a26.38,26.38,0,0,0,13-3.21q5.81-3.21,12.49-13.24Zm-56.87-31h48.1c.11-1.78.17-3.11.17-4q0-10.25-5.85-16.36T123.68,228a23.8,23.8,0,0,0-18,7.87A35.32,35.32,0,0,0,96.46,254.47Z"/><path class="cls-2" d="M183,305.33H170l14.19-84.68h13l-4,22.18q6.76-13,14.16-18.79a27.47,27.47,0,0,1,17.51-5.82c.83,0,1.78,0,2.84.09l-2.17,13.36-3.17-.08q-7.77,0-12.65,2.92a31.19,31.19,0,0,0-8.89,8.27,65.26,65.26,0,0,0-7.44,13.27q-3.42,7.93-7.09,30.32Z"/><path class="cls-2" d="M295.13,305.33H281.85c-.05-1.73-.08-3.15-.08-4.26a48.55,48.55,0,0,1,1.5-12.28q-12.78,18.87-31.73,18.87-11.86,0-19.42-7.25a24.16,24.16,0,0,1-7.56-18.18q0-12.25,10.86-20.93t40.5-8.67q2.67,0,12.77.5a54.71,54.71,0,0,0,.93-8.85q0-16-19.46-16-17.12,0-24.47,14.29l-12.36-5.27q10-19.2,36-19.2,14.34,0,24,6.3A20.07,20.07,0,0,1,303,242.18q0,4.68-6.43,43.93a111.41,111.41,0,0,0-1.68,15.62C294.88,302.23,295,303.43,295.13,305.33ZM287,262.73q-6-.5-11.5-.5-36.48,0-36.48,20.55A13.55,13.55,0,0,0,243,293q3.94,3.84,11,3.84,11.16,0,20.78-9.61T287,262.73Z"/><rect class="cls-3" x="173.17" y="82.77" width="27.37" height="76.24"/><rect class="cls-4" x="137.81" y="105.82" width="27.37" height="53.19"/><rect class="cls-5" x="102.45" y="52.63" width="27.37" height="106.38"/></g></g></svg>